<?xml version="1.0" standalone="no"?>
<!DOCTYPE svg PUBLIC "-//W3C//DTD SVG 20010904//EN"
 "http://www.w3.org/TR/2001/REC-SVG-20010904/DTD/svg10.dtd">
<svg version="1.0" xmlns="http://www.w3.org/2000/svg"
 width="256.000000pt" height="256.000000pt" viewBox="0 0 256.000000 256.000000"
 preserveAspectRatio="xMidYMid meet">
<metadata>
Created by potrace 1.14, written by Peter Selinger 2001-2017
</metadata>
<g transform="translate(0.000000,256.000000) scale(0.100000,-0.100000)"
fill="#000000" stroke="none">
<path d="M1040 2472 c-130 -15 -370 -87 -509 -153 -36 -18 -72 -35 -80 -38 -7
-4 -26 -24 -42 -46 -25 -37 -30 -56 -49 -222 -17 -150 -20 -238 -20 -515 1
-338 6 -408 43 -518 77 -231 101 -309 122 -401 37 -162 82 -249 188 -366 84
-91 127 -115 237 -131 186 -27 527 -25 672 4 13 2 48 8 78 13 122 21 193 56
248 122 33 41 132 395 152 549 6 47 23 132 36 190 33 136 27 107 73 335 22
110 45 241 51 290 6 50 13 97 15 105 10 38 27 234 27 318 0 85 -3 97 -28 135
-28 42 -86 101 -181 184 -98 84 -278 127 -588 139 -208 8 -406 11 -445 6z
m1045 -498 c12 -26 16 -51 12 -83 -4 -39 -12 -52 -52 -88 -73 -67 -115 -56
-115 31 0 86 59 176 115 176 16 0 28 -10 40 -36z m-1453 -88 c9 -7 23 -33 29
-58 11 -39 10 -52 -5 -93 -10 -25 -26 -49 -35 -52 -9 -3 -24 -13 -33 -20 -48
-42 -85 32 -65 130 18 87 65 127 109 93z m1067 -249 c36 -18 129 -212 192
-400 39 -119 50 -160 40 -166 -6 -4 -60 -18 -119 -30 -59 -12 -176 -40 -261
-63 l-155 -41 -65 21 c-36 12 -129 35 -206 52 -191 42 -247 57 -337 92 -102
38 -102 44 -22 165 30 46 60 88 67 95 7 7 30 35 52 63 22 27 69 80 105 116 58
59 71 68 120 77 97 19 182 29 269 31 47 1 88 4 90 7 9 8 207 -8 230 -19z"/>
</g>
</svg>
