<svg xmlns="http://www.w3.org/2000/svg" width="1em" height="1em" viewBox="0 0 256 256"><path fill="currentColor" d="M110.5 51.2a15.7 15.7 0 0 0-14.7-4.3a16 16 0 0 0-11.6 10.2L30.3 205.2a16.1 16.1 0 0 0 15 21.4a17.1 17.1 0 0 0 5.5-.9l148.1-53.9a16 16 0 0 0 10.2-11.6a15.7 15.7 0 0 0-4.3-14.7ZM63.8 159.8L83 107l66 66l-52.8 19.2ZM160 72a38.2 38.2 0 0 1 3.8-15.6C169.1 45.8 179.1 40 192 40c6.7 0 11-2.3 13.7-7.2a22.3 22.3 0 0 0 2.3-8.9a7.9 7.9 0 0 1 8-7.9a8 8 0 0 1 8 8c0 12.9-8.5 32-32 32c-6.7 0-11 2.3-13.7 7.2a22.3 22.3 0 0 0-2.3 8.9a7.9 7.9 0 0 1-8 7.9a8 8 0 0 1-8-8Zm-24-32V16a8 8 0 0 1 16 0v24a8 8 0 0 1-16 0Zm101.7 82.3a8.1 8.1 0 0 1 0 11.4a8.2 8.2 0 0 1-11.4 0l-16-16a8.1 8.1 0 0 1 11.4-11.4Zm4.8-42.7l-24 8a7.3 7.3 0 0 1-2.5.4a8 8 0 0 1-2.5-15.6l24-8a8 8 0 0 1 5 15.2Z"/></svg>