<svg xmlns="http://www.w3.org/2000/svg" width="1em" height="1em" viewBox="0 0 256 256"><path fill="currentColor" d="M168 31a8 8 0 0 1 8-8a60.2 60.2 0 0 1 52 30a7.9 7.9 0 0 1-3 10.9a7.1 7.1 0 0 1-4 1.1a8 8 0 0 1-6.9-4A44 44 0 0 0 176 39a8 8 0 0 1-8-8Zm61 139.8A88 88 0 0 1 67.8 192l-42-72.8A28.1 28.1 0 0 1 36 81a28.5 28.5 0 0 1 11.8-3.7l-3.4-5.8a27.9 27.9 0 0 1 10.3-38.2a27.1 27.1 0 0 1 21.2-2.8a27.9 27.9 0 0 1 11.5 6.2a29.4 29.4 0 0 1 9.9-9.6a28.1 28.1 0 0 1 38.3 10.3l17.3 30a28.1 28.1 0 0 1 47.3 1.9l20 34.7a87.2 87.2 0 0 1 8.8 66.8ZM206.3 112l-20-34.7a11.8 11.8 0 0 0-7.2-5.5a11.9 11.9 0 0 0-13.5 17.5l10 17.4l.3.7c.1.2.2.3.2.5v.2a1.9 1.9 0 0 1 .2.7a6.4 6.4 0 0 1 .2.7v2.1c-.1 0-.1.1-.1.2s-.1.4-.1.6h-.1a1.9 1.9 0 0 1-.2.7v.2l-.2.5h-.1l-.3.6l-.4.5l-.5.5l-.6.6h-.1l-.5.4l-.7.4a32 32 0 0 0-11.7 43.7a8 8 0 0 1-13.8 8a48.1 48.1 0 0 1 10.9-61l-6.3-11l-30-51.9a12 12 0 1 0-20.8 12l26 45a8 8 0 0 1-2.9 10.9a7.9 7.9 0 0 1-8.5-.3a6.7 6.7 0 0 1-2.4-2.6l-26-45H87l-7.9-13.1a12.5 12.5 0 0 0-7.3-5.6a12 12 0 0 0-9.1 1.2a11.8 11.8 0 0 0-5.6 7.3a12 12 0 0 0 1.2 9.1l16 27.7l22 38.1a8.1 8.1 0 0 1-2.9 11l-.9.4h-.3l-.6.2h-.3l-.9.2h-2.2l-.8-.2h-.1l-.9-.3h-.2l-.6-.3h-.3l-.7-.5h-.1l-.7-.6l-.2-.2l-.5-.5v-.2l-.6-.9l-22-38.1a12 12 0 0 0-20.8 12l42 72.8a72.1 72.1 0 0 0 98.3 26.2a72 72 0 0 0 26.3-98.3ZM85.7 233.4A102.6 102.6 0 0 1 54.9 200a8 8 0 1 0-13.8 8a117.9 117.9 0 0 0 35.4 38.6a8.6 8.6 0 0 0 4.6 1.4a8.2 8.2 0 0 0 6.6-3.4a8.1 8.1 0 0 0-2-11.2Z"/></svg>